HIERARCHY
ROOT SpineBase
{
  OFFSET 0.000000 0.000000 0.000000
  CHANNELS 6 Xposition Yposition Zposition Zrotation Xrotation Yrotation
  JOINT SpineMid
  {
    OFFSET 0.000000 31.591461 0.000000
    CHANNELS 3 Zrotation Xrotation Yrotation
    JOINT SpineShoulder
    {
      OFFSET -0.065796 23.410448 -0.769335
      CHANNELS 3 Zrotation Xrotation Yrotation
      JOINT Neck
      {
        OFFSET -0.004109 7.747452 -0.591014
        CHANNELS 3 Zrotation Xrotation Yrotation
        JOINT Head
        {
          OFFSET -4.697462 13.407854 1.852336
          CHANNELS 3 Zrotation Xrotation Yrotation
          End Site
          {
            OFFSET 0 0 0
          }
        }
      }
      JOINT ShoulderLeft
      {
        OFFSET -16.171804 -4.907534 9.206031
        CHANNELS 3 Zrotation Xrotation Yrotation
        JOINT ElbowLeft
        {
          OFFSET -2.764843 -25.014667 1.999252
          CHANNELS 3 Zrotation Xrotation Yrotation
          JOINT WristLeft
          {
            OFFSET 0.674961 -25.326757 -0.296189
            CHANNELS 3 Zrotation Xrotation Yrotation
            JOINT HandLeft
            {
              OFFSET 0.588088 -11.295966 0.157602
              CHANNELS 3 Zrotation Xrotation Yrotation
              JOINT HandTipLeft
              {
                OFFSET 0.499455 -6.243520 -3.153551
                CHANNELS 3 Zrotation Xrotation Yrotation
                End Site
                {
                  OFFSET 0 0 0
                }
              }
              JOINT ThumbLeft
              {
                OFFSET 2.095096 -0.190614 -1.769916
                CHANNELS 3 Zrotation Xrotation Yrotation
                End Site
                {
                  OFFSET 0 0 0
                }
              }
            }
          }
        }
      }
      JOINT ShoulderRight
      {
        OFFSET 12.986964 -3.626026 -8.577241
        CHANNELS 3 Zrotation Xrotation Yrotation
        JOINT ElbowRight
        {
          OFFSET 7.515790 -24.325670 -3.878575
          CHANNELS 3 Zrotation Xrotation Yrotation
          JOINT WristRight
          {
            OFFSET 1.914775 -23.463493 -6.462743
            CHANNELS 3 Zrotation Xrotation Yrotation
            JOINT HandRight
            {
              OFFSET -0.255010 -6.146958 -2.095161
              CHANNELS 3 Zrotation Xrotation Yrotation
              JOINT HandTipRight
              {
                OFFSET -0.559914 -6.880855 -1.009784
                CHANNELS 3 Zrotation Xrotation Yrotation
                End Site
                {
                  OFFSET 0 0 0
                }
              }
              JOINT ThumbRight
              {
                OFFSET -3.010865 -1.852261 -1.679684
                CHANNELS 3 Zrotation Xrotation Yrotation
                End Site
                {
                  OFFSET 0 0 0
                }
              }
            }
          }
        }
      }
    }
  }
  JOINT HipLeft
  {
    OFFSET -6.232917 -0.164607 -0.309790
    CHANNELS 3 Zrotation Xrotation Yrotation
    JOINT KneeLeft
    {
      OFFSET 2.380608 -37.682677 5.967768
      CHANNELS 3 Zrotation Xrotation Yrotation
      JOINT AnkleLeft
      {
        OFFSET 8.777203 -34.756948 7.956360
        CHANNELS 3 Zrotation Xrotation Yrotation
        JOINT FootLeft
        {
          OFFSET -2.755145 -7.486827 -5.599561
          CHANNELS 3 Zrotation Xrotation Yrotation
          End Site
          {
            OFFSET 0 0 0
          }
        }
      }
    }
  }
  JOINT HipRight
  {
    OFFSET 6.955095 1.843590 -6.656663
    CHANNELS 3 Zrotation Xrotation Yrotation
    JOINT KneeRight
    {
      OFFSET 8.904346 -35.492922 -1.762271
      CHANNELS 3 Zrotation Xrotation Yrotation
      JOINT AnkleRight
      {
        OFFSET 8.916809 -36.335962 7.103365
        CHANNELS 3 Zrotation Xrotation Yrotation
        JOINT FootRight
        {
          OFFSET -4.916081 -3.791266 -12.010397
          CHANNELS 3 Zrotation Xrotation Yrotation
          End Site
          {
            OFFSET 0 0 0
          }
        }
      }
    }
  }
}
MOTION
Frames: 15
Frame Time: 0.033333
-33.317046 81.280510 325.379118 2.228397 -1.784132 30.034302 -0.199236 -0.089291 -29.930859 -0.031179 0.007910 0.093516 13.223229 -11.334751 -5.487176 0.000000 0.000000 0.000000 -6.966983 3.559181 -0.451615 38.574703 79.396039 -24.916795 6.369085 3.826685 8.396853 26.331929 -42.227247 12.992345 0.000000 0.000000 0.000000 0.000000 0.000000 0.000000 -2.060421 8.581837 1.909680 -71.727030 3.126778 19.540090 1.016018 9.343314 8.341120 -22.251426 -12.477142 -32.087121 0.000000 0.000000 0.000000 0.000000 0.000000 0.000000 -1.037697 2.659179 -29.975514 -3.651991 -3.335726 -1.787594 0.680010 4.128501 3.583128 0.000000 0.000000 0.000000 -3.369454 1.153542 -30.456272 -0.662814 -0.628289 -0.573687 10.490531 -14.925299 -3.250711 0.000000 0.000000 0.000000
-33.371070 81.234909 325.275394 2.328046 -1.679156 30.293454 -0.227582 -0.074940 -30.187497 -0.041833 0.004571 0.095662 13.302549 -11.318123 -5.446068 0.000000 0.000000 0.000000 -8.107225 2.740066 -0.458839 41.214415 79.937014 -26.611055 7.990164 4.844512 9.762935 22.409994 -43.116492 10.645948 0.000000 0.000000 0.000000 0.000000 0.000000 0.000000 -1.745882 8.452718 1.801586 -71.793918 3.420737 19.731170 0.281976 11.872103 10.075959 -21.786123 -16.090671 -35.608862 0.000000 0.000000 0.000000 0.000000 0.000000 0.000000 -1.164711 2.623396 -30.232664 -3.654979 -3.425859 -1.813740 1.197933 4.154144 3.223496 0.000000 0.000000 0.000000 -3.449362 1.010397 -30.742578 -0.721908 -0.665909 -0.566321 8.088665 -9.743140 -1.948266 0.000000 0.000000 0.000000
-33.416810 81.198803 325.184121 2.457274 -1.580076 30.458043 -0.235439 -0.070972 -30.347859 -0.049096 0.006034 0.100184 13.217542 -11.260890 -5.395164 0.000000 0.000000 0.000000 -9.237792 1.842366 -0.479874 44.402178 80.657271 -28.994268 9.123621 5.694353 10.727436 20.069972 -43.082621 9.096034 0.000000 0.000000 0.000000 0.000000 0.000000 0.000000 -1.463778 8.311733 1.682484 -71.720832 4.144379 20.201454 -2.474367 11.474736 10.343242 -16.459187 -15.428139 -33.415842 0.000000 0.000000 0.000000 0.000000 0.000000 0.000000 -1.318890 2.606729 -30.394144 -3.670359 -3.501959 -1.839207 1.620298 4.064940 2.984383 0.000000 0.000000 0.000000 -3.541310 0.913749 -30.923461 -0.790897 -0.727928 -0.568662 6.120763 -5.612479 -0.827549 0.000000 0.000000 0.000000
-33.466098 81.169275 325.109672 2.579506 -1.502971 30.507856 -0.239426 -0.067900 -30.393508 -0.052924 0.008202 0.104790 12.999522 -11.220627 -5.352333 0.000000 0.000000 0.000000 -10.480372 0.647083 -0.509280 52.809374 81.571008 -36.187373 10.461199 5.946116 11.961090 14.376028 -43.015143 5.214067 0.000000 0.000000 0.000000 0.000000 0.000000 0.000000 -1.215579 8.188168 1.572756 -71.542968 5.044912 20.763522 -5.000239 11.745817 10.904867 -10.906918 -16.622663 -32.350650 0.000000 0.000000 0.000000 0.000000 0.000000 0.000000 -1.461181 2.603395 -30.440811 -3.681931 -3.562439 -1.859286 1.775176 4.337539 2.806102 0.000000 0.000000 0.000000 -3.581600 0.870260 -30.975437 -0.888582 -0.831815 -0.585645 7.446207 -8.321629 -1.527546 0.000000 0.000000 0.000000
-33.513103 81.151540 325.057676 2.682393 -1.438808 30.515465 -0.240263 -0.063567 -30.397758 -0.054912 0.013317 0.108713 12.804207 -11.228780 -5.322960 0.000000 0.000000 0.000000 -11.054379 0.143780 -0.540232 60.060184 81.855423 -42.588024 11.777520 4.979737 13.305615 8.668351 -42.340483 1.075962 0.000000 0.000000 0.000000 0.000000 0.000000 0.000000 -1.008442 8.092836 1.485217 -71.388995 5.876353 21.263540 -8.447476 9.500002 9.882497 -4.418402 -14.604055 -28.925830 0.000000 0.000000 0.000000 0.000000 0.000000 0.000000 -1.582139 2.600470 -30.445864 -3.676490 -3.609222 -1.871009 1.846986 4.664411 2.647846 0.000000 0.000000 0.000000 -3.587266 0.838168 -30.981818 -1.011539 -0.947041 -0.609451 12.971270 -20.299152 -4.228347 0.000000 0.000000 0.000000
-33.560495 81.141683 325.026664 2.779457 -1.392820 30.427823 -0.227563 -0.060666 -30.306606 -0.054354 0.020649 0.113041 12.596677 -11.255857 -5.303038 0.000000 0.000000 0.000000 -11.064670 0.216101 -0.555971 65.387488 81.627023 -47.342831 11.256192 3.668492 13.054223 9.469459 -40.782431 1.081021 0.000000 0.000000 0.000000 0.000000 0.000000 0.000000 -0.883750 8.013015 1.417385 -71.333085 6.468071 21.631838 -11.676224 6.282795 7.948075 1.977519 -13.296514 -26.358944 0.000000 0.000000 0.000000 0.000000 0.000000 0.000000 -1.693198 2.607464 -30.355494 -3.676802 -3.677320 -1.890249 1.783956 4.953434 2.629516 0.000000 0.000000 0.000000 -3.592555 0.843414 -30.885301 -1.109966 -1.095305 -0.644574 13.066468 -20.423785 -4.028259 0.000000 0.000000 0.000000
-33.603346 81.140095 325.007912 2.860416 -1.368185 30.333948 -0.213553 -0.052147 -30.209694 -0.055996 0.025262 0.116553 12.389743 -11.240017 -5.280473 0.000000 0.000000 0.000000 -10.484113 0.884955 -0.555700 66.782125 81.050022 -48.609316 10.414631 2.155520 12.540070 13.282317 -39.395522 2.918333 0.000000 0.000000 0.000000 0.000000 0.000000 0.000000 -0.757259 7.959347 1.357753 -71.203295 6.922612 21.858557 -15.268328 1.278219 4.359769 1.808378 -10.037813 -25.479012 0.000000 0.000000 0.000000 0.000000 0.000000 0.000000 -1.779881 2.624231 -30.259016 -3.655591 -3.742722 -1.902997 1.550827 5.366049 2.678079 0.000000 0.000000 0.000000 -3.608470 0.866681 -30.782219 -1.188742 -1.164189 -0.664096 12.698586 -19.465166 -4.139526 0.000000 0.000000 0.000000
-33.640687 81.146895 324.991084 2.922390 -1.361218 30.226578 -0.196199 -0.035662 -30.099988 -0.060496 0.027863 0.119081 12.269915 -11.251528 -5.270007 0.000000 0.000000 0.000000 -9.307307 2.026348 -0.554059 64.727743 80.229715 -46.950296 8.821676 0.128847 11.370758 18.200945 -37.852183 5.347393 0.000000 0.000000 0.000000 0.000000 0.000000 0.000000 -0.655537 7.908060 1.308789 -71.760280 6.599447 21.826582 -14.632978 -1.096419 2.400420 4.309453 -10.817860 -25.059389 0.000000 0.000000 0.000000 0.000000 0.000000 0.000000 -1.841942 2.646004 -30.149311 -3.614556 -3.799439 -1.907994 1.315640 5.521536 2.800309 0.000000 0.000000 0.000000 -3.652792 0.879149 -30.672707 -1.254077 -1.160643 -0.671314 11.683752 -16.933249 -4.273944 0.000000 0.000000 0.000000
-33.674042 81.147978 324.971453 2.970174 -1.358257 30.210431 -0.196972 -0.017871 -30.082241 -0.067940 0.023842 0.120302 12.292694 -11.236382 -5.264108 0.000000 0.000000 0.000000 -8.236034 3.055092 -0.569416 62.623679 79.442973 -45.201735 7.736868 -2.109385 10.678716 23.105367 -35.367339 7.115596 0.000000 0.000000 0.000000 0.000000 0.000000 0.000000 -0.554128 7.852047 1.263242 -72.161949 5.844847 21.433673 -12.281825 0.283068 3.514145 5.935418 -9.809101 -23.229390 0.000000 0.000000 0.000000 0.000000 0.000000 0.000000 -1.885545 2.666914 -30.131322 -3.544933 -3.843438 -1.901756 0.817047 5.638513 3.111574 0.000000 0.000000 0.000000 -3.714960 0.875748 -30.661226 -1.264467 -1.133760 -0.666764 13.961879 -22.064150 -5.571510 0.000000 0.000000 0.000000
-33.701774 81.141374 324.949405 3.008172 -1.358056 30.213558 -0.189616 -0.001304 -30.084070 -0.068597 0.028553 0.121655 12.328442 -11.245098 -5.260301 0.000000 0.000000 0.000000 -7.333830 3.841924 -0.594209 60.683105 78.776307 -43.629770 7.375666 -4.186865 10.634366 24.018558 -33.355719 6.474813 0.000000 0.000000 0.000000 0.000000 0.000000 0.000000 -0.488749 7.781891 1.223725 -72.641964 5.062315 21.060667 -10.021484 -1.694131 1.904968 5.503199 -5.230637 -19.942427 0.000000 0.000000 0.000000 0.000000 0.000000 0.000000 -1.918399 2.685919 -30.132920 -3.474639 -3.884304 -1.894414 0.429119 5.776982 3.324243 0.000000 0.000000 0.000000 -3.799592 0.869047 -30.671617 -1.248821 -1.075269 -0.655747 17.678133 -30.710361 -7.397178 0.000000 0.000000 0.000000
-33.734453 81.123919 324.926484 3.078890 -1.341644 30.260426 -0.185096 0.011055 -30.128469 -0.071980 0.029741 0.124285 12.099118 -11.374759 -5.273528 0.000000 0.000000 0.000000 -6.594152 4.410860 -0.621258 58.599167 78.293269 -42.033184 7.402554 -5.878127 10.884965 26.536658 -31.666436 6.718771 0.000000 0.000000 0.000000 0.000000 0.000000 0.000000 -0.475812 7.700242 1.186851 -73.161626 4.208080 20.651500 -7.631848 -4.766510 -0.494885 4.614434 1.186057 -15.552534 0.000000 0.000000 0.000000 0.000000 0.000000 0.000000 -1.985650 2.708869 -30.177415 -3.407957 -3.930727 -1.889541 0.326567 5.841010 3.343906 0.000000 0.000000 0.000000 -3.890369 0.859858 -30.725157 -1.277411 -1.013298 -0.644463 18.021128 -31.573683 -8.353696 0.000000 0.000000 0.000000
-33.763395 81.096761 324.907659 3.151783 -1.327921 30.342390 -0.189124 0.015159 -30.207628 -0.081170 0.021161 0.126780 11.872645 -11.514522 -5.299863 0.000000 0.000000 0.000000 -6.017612 4.832313 -0.643299 55.862585 78.017262 -39.941935 7.862996 -7.063340 11.431102 31.975935 -31.437813 9.001800 0.000000 0.000000 0.000000 0.000000 0.000000 0.000000 -0.433186 7.650799 1.147056 -73.993087 3.019722 20.081768 -5.723114 -7.004401 -2.097868 0.066494 2.467549 -14.556905 0.000000 0.000000 0.000000 0.000000 0.000000 0.000000 -2.051718 2.736601 -30.256843 -3.351590 -3.974201 -1.886559 0.425123 5.860443 3.227940 0.000000 0.000000 0.000000 -3.978025 0.859346 -30.812542 -1.283876 -0.944760 -0.627127 16.713851 -28.490024 -8.425877 0.000000 0.000000 0.000000
-33.781596 81.070009 324.876629 3.224496 -1.309064 30.421336 -0.197662 0.009820 -30.283668 -0.089881 0.008583 0.129460 11.628095 -11.601467 -5.318532 0.000000 0.000000 0.000000 -5.849983 4.855783 -0.642974 53.745617 78.148240 -38.429677 8.984302 -7.284833 12.442466 32.232030 -30.988851 8.611276 0.000000 0.000000 0.000000 0.000000 0.000000 0.000000 -0.382667 7.605850 1.103627 -74.620460 2.254858 19.747691 -4.112747 -8.349876 -3.088880 -6.365518 4.942867 -12.296259 0.000000 0.000000 0.000000 0.000000 0.000000 0.000000 -2.120295 2.759898 -30.333407 -3.300610 -3.992630 -1.878026 0.584270 5.707344 3.117584 0.000000 0.000000 0.000000 -4.075918 0.844224 -30.900246 -1.290375 -0.884219 -0.612014 17.757588 -31.064195 -9.186094 0.000000 0.000000 0.000000
-33.803938 81.044997 324.834190 3.269179 -1.283442 30.468835 -0.217199 0.012983 -30.330051 -0.097390 -0.002029 0.130335 11.467510 -11.698302 -5.333736 0.000000 0.000000 0.000000 -6.152383 4.385863 -0.613204 54.555953 78.472039 -39.227435 9.764719 -7.401566 13.138051 31.577126 -32.153565 8.567289 0.000000 0.000000 0.000000 0.000000 0.000000 0.000000 -0.294873 7.552658 1.064547 -75.143237 1.610659 19.457639 -2.730456 -8.040287 -2.840206 -12.173551 4.353429 -12.318667 0.000000 0.000000 0.000000 0.000000 0.000000 0.000000 -2.169551 2.762184 -30.379896 -3.260392 -4.005972 -1.870954 0.704921 5.775301 2.963747 0.000000 0.000000 0.000000 -4.141296 0.795504 -30.960994 -1.312298 -0.845529 -0.601125 19.374228 -35.063261 -10.110145 0.000000 0.000000 0.000000
-33.824403 81.025252 324.789829 3.301717 -1.262153 30.495913 -0.244821 0.001185 -30.356037 -0.103837 -0.028088 0.131235 11.330627 -11.696079 -5.342881 0.000000 0.000000 0.000000 -6.142640 4.316650 -0.602636 54.526744 78.544994 -39.302081 9.893153 -7.741850 13.273280 33.904362 -31.960818 9.572632 0.000000 0.000000 0.000000 0.000000 0.000000 0.000000 -0.193253 7.569021 1.033906 -75.587610 1.140060 19.235343 -1.479722 -7.737928 -2.637935 -19.189513 0.435273 -15.359819 0.000000 0.000000 0.000000 0.000000 0.000000 0.000000 -2.207110 2.761347 -30.406333 -3.244213 -4.016393 -1.869507 0.906916 5.775872 2.791637 0.000000 0.000000 0.000000 -4.179148 0.736986 -31.002564 -1.331115 -0.852164 -0.597514 21.585742 -40.454385 -10.917601 0.000000 0.000000 0.000000
